<svg width="695" height="172" viewBox="0 0 695 172" fill="none" xmlns="http://www.w3.org/2000/svg">
<path d="M107.777 127.546C108.286 134.779 107.894 144.086 108.011 151.758C107.859 159.114 109.311 165.729 102.652 169.61C98.7717 171.657 93.6946 171.732 89.5944 170.345C84.9714 168.669 82.6461 164.135 82.6392 159.609C82.5292 154.251 82.6324 146.799 82.598 141.043C82.5773 136.949 81.3734 131.365 80.8162 129.119C77.2595 114.935 59.2902 108.362 44.9534 105.587C40.3854 104.666 35.8243 104.426 31.2494 103.506C10.9274 99.6728 0.429286 85.6744 1.66072 65.0409C1.66072 60.0473 1.66072 52.4643 1.66072 47.3128C1.70887 41.5362 1.26858 38.4659 4.43315 34.5713C6.47636 32.0643 9.73724 30.9996 12.8881 30.7798C18.4742 30.2715 24.1085 32.236 26.138 37.5455C27.7409 41.8315 26.9222 45.7261 27.1217 50.7334C27.1217 54.8752 27.1217 59.7451 27.1217 63.4061C27.108 66.971 27.8303 70.6594 28.8003 72.7475C35.1845 86.3956 50.7665 94.4457 65.6882 97.2207C72.4782 98.4158 79.4196 98.7249 85.9552 101.088C97.5609 104.604 106.435 115.409 107.763 127.443L107.777 127.546Z" fill="url(#paint0_linear_37_12)"/>
<path d="M149.838 97.2C150.347 104.433 149.955 113.74 150.072 121.412C149.92 128.768 151.372 135.383 144.713 139.264C140.833 141.311 135.756 141.386 131.655 139.999C127.032 138.323 124.707 133.79 124.7 129.263C124.59 123.905 124.693 116.453 124.659 110.697C124.638 106.603 123.434 101.019 122.877 98.7729C119.321 84.5891 101.351 78.0157 87.0144 75.2408C82.4464 74.3204 77.8853 74.08 73.3105 73.1596C52.9884 69.3268 42.4903 55.3285 43.7218 34.6949C43.7218 29.7014 43.7218 22.1183 43.7218 16.9668C43.7699 11.1903 43.3296 8.11995 46.4942 4.2254C48.5374 1.71833 51.7983 0.653682 54.9491 0.433883C60.5352 -0.0743996 66.1695 1.89004 68.199 7.19954C69.8019 11.4856 68.9833 15.3802 69.1828 20.3874C69.1828 24.5292 69.1828 29.3991 69.1828 33.0602C69.169 36.625 69.8914 40.3135 70.8614 42.4016C77.2455 56.0497 92.8276 64.0998 107.749 66.8747C114.539 68.0699 121.481 68.379 128.016 70.7418C139.622 74.2586 148.496 85.063 149.824 97.097L149.838 97.2Z" fill="url(#paint1_linear_37_12)"/>
<path d="M95.4205 12.2529L93.0916 14.9278C90.0032 18.475 90.3796 23.8503 93.9324 26.9338L131.813 59.8116C135.366 62.8951 140.75 62.5192 143.838 58.972L146.167 56.2971C149.256 52.7499 148.879 47.3746 145.326 44.2911L107.445 11.4133C103.893 8.32979 98.5089 8.70568 95.4205 12.2529Z" fill="url(#paint2_linear_37_12)"/>
<path d="M7.92094 112.705L5.59205 115.38C2.50364 118.927 2.8801 124.302 6.4329 127.386L44.3139 160.263C47.8667 163.347 53.2504 162.971 56.3388 159.424L58.6677 156.749C61.7561 153.202 61.3797 147.827 57.8269 144.743L19.9459 111.865C16.3931 108.782 11.0093 109.158 7.92094 112.705Z" fill="url(#paint3_linear_37_12)"/>
<path d="M233.782 140.425C228.56 140.425 223.875 139.923 219.741 138.92C215.599 137.918 212.063 136.393 209.133 134.346C206.195 132.299 203.911 129.73 202.26 126.646C201.428 125.08 200.774 123.397 200.299 121.598C199.494 118.534 201.304 115.388 204.317 114.406L208.121 113.17C211.19 112.174 214.574 113.726 215.647 116.769C216.074 117.978 216.631 119.09 217.319 120.093C218.963 122.497 221.316 124.269 224.371 125.389C227.425 126.516 230.837 127.072 234.614 127.072C238.391 127.072 241.28 126.632 243.778 125.746C246.268 124.867 248.153 123.679 249.44 122.195C250.726 120.711 251.366 119.09 251.366 117.318C251.366 115.23 250.561 113.547 248.958 112.263C247.348 110.979 245.16 109.9 242.388 109.014C239.616 108.135 236.458 107.29 232.929 106.486C228.994 105.607 225.114 104.604 221.295 103.478C217.477 102.358 214.024 100.909 210.928 99.1438C207.832 97.3785 205.383 95.0913 203.574 92.282C201.765 89.4727 200.863 85.9422 200.863 81.6904C200.863 76.7999 202.088 72.562 204.537 68.9971C206.986 65.4254 210.584 62.6367 215.324 60.631C220.064 58.6254 225.767 57.6226 232.44 57.6226C239.113 57.6226 244.954 58.6048 249.735 60.5692C254.517 62.5337 258.231 65.3017 260.88 68.8735C263.095 71.8545 264.464 75.2888 265.001 79.1902C265.187 80.5296 264.354 81.8072 263.047 82.1712L252.687 85.0355C251.146 85.4613 249.57 84.4517 249.323 82.8719C249.123 81.6149 248.8 80.4541 248.339 79.4032C247.534 77.5624 246.413 76.0169 244.968 74.7737C243.523 73.5304 241.734 72.5894 239.602 71.9438C237.469 71.305 235.041 70.9822 232.31 70.9822C229.173 70.9822 226.462 71.3874 224.178 72.1842C221.887 72.9878 220.16 74.0662 218.998 75.4331C217.828 76.7999 217.25 78.4003 217.25 80.248C217.25 82.4117 218.152 84.1975 219.961 85.6056C221.77 87.0068 224.178 88.1539 227.191 89.0331C230.204 89.9191 233.52 90.7571 237.132 91.5607C240.586 92.282 244.101 93.1818 247.678 94.267C251.256 95.3523 254.585 96.7535 257.681 98.4775C260.77 100.202 263.267 102.53 265.152 105.456C267.037 108.389 267.987 112.057 267.987 116.467C267.987 121.282 266.7 125.492 264.127 129.105C261.554 132.718 257.722 135.5 252.618 137.471C247.513 139.436 241.225 140.418 233.754 140.418L233.782 140.425Z" fill="#ED5425"/>
<path d="M281.271 136.056V61.9979C281.271 60.5143 282.474 59.3123 283.96 59.3123H295.945C297.43 59.3123 298.634 60.5143 298.634 61.9979V94.8165C302.735 93.1337 306.566 90.9838 310.144 88.3806C313.721 85.7773 316.913 82.865 319.727 79.6573C322.541 76.4496 324.948 73.1183 326.957 69.6702C328.608 66.8266 329.881 63.9898 330.775 61.1462C331.119 60.0472 332.165 59.3191 333.321 59.3191H347.458C349.323 59.3191 350.65 61.1737 349.99 62.9115C348.958 65.6315 347.651 68.3446 346.062 71.0508C343.771 74.9454 341.06 78.6133 337.923 82.0614C334.786 85.5094 331.477 88.5797 327.982 91.2654C324.488 93.9511 318.633 97.9486 315.097 99.4735L317.436 99.3842C321.13 99.3842 324.446 99.8032 327.377 100.648C330.308 101.493 332.922 102.812 335.213 104.618C337.504 106.425 339.533 108.65 341.301 111.295C343.069 113.939 344.638 117.112 346 120.801L351.111 135.149C351.73 136.894 350.437 138.728 348.58 138.728H334.752C333.555 138.728 332.509 137.938 332.172 136.798L328.519 124.29C327.391 120.361 325.905 117.208 324.061 114.846C322.21 112.483 319.844 110.752 316.948 109.673C314.058 108.588 310.274 108.046 305.617 108.046H298.628V136.049C298.628 137.533 297.424 138.735 295.938 138.735H283.954C282.468 138.735 281.264 137.533 281.264 136.049L281.271 136.056Z" fill="#ED5425"/>
<path d="M363.708 136.056V61.9979C363.708 60.5143 364.912 59.3123 366.398 59.3123H378.74C380.226 59.3123 381.43 60.5143 381.43 61.9979V136.056C381.43 137.54 380.226 138.742 378.74 138.742H366.398C364.912 138.742 363.708 137.54 363.708 136.056Z" fill="#ED5425"/>
<path d="M521.723 136.056V61.9979C521.723 60.5143 522.927 59.3123 524.413 59.3123H536.755C538.241 59.3123 539.445 60.5143 539.445 61.9979V136.056C539.445 137.54 538.241 138.742 536.755 138.742H524.413C522.927 138.742 521.723 137.54 521.723 136.056Z" fill="#ED5425"/>
<path d="M398.662 136.056V61.9979C398.662 60.5143 399.866 59.3123 401.352 59.3123H413.336C414.822 59.3123 416.026 60.5143 416.026 61.9979V136.056C416.026 137.54 414.822 138.742 413.336 138.742H401.352C399.866 138.742 398.662 137.54 398.662 136.056ZM402.281 136.056V126.859C402.281 125.375 403.485 124.173 404.971 124.173H446.963C448.449 124.173 449.653 125.375 449.653 126.859V136.056C449.653 137.54 448.449 138.742 446.963 138.742H404.971C403.485 138.742 402.281 137.54 402.281 136.056Z" fill="#ED5425"/>
<path d="M459.525 136.056V61.9979C459.525 60.5143 460.729 59.3123 462.215 59.3123H474.199C475.685 59.3123 476.889 60.5143 476.889 61.9979V136.056C476.889 137.54 475.685 138.742 474.199 138.742H462.215C460.729 138.742 459.525 137.54 459.525 136.056ZM463.144 136.056V126.859C463.144 125.375 464.348 124.173 465.834 124.173H507.826C509.312 124.173 510.516 125.375 510.516 126.859V136.056C510.516 137.54 509.312 138.742 507.826 138.742H465.834C464.348 138.742 463.144 137.54 463.144 136.056Z" fill="#ED5425"/>
<path d="M555.983 136.056V61.9979C555.983 60.5143 557.187 59.3123 558.673 59.3123H570.657C572.143 59.3123 573.347 60.5143 573.347 61.9979V136.056C573.347 137.54 572.143 138.742 570.657 138.742H558.673C557.187 138.742 555.983 137.54 555.983 136.056ZM564.3 71.4355V61.9979C564.3 60.5143 565.504 59.3123 566.99 59.3123H612.477C613.963 59.3123 615.167 60.5143 615.167 61.9979V71.4355C615.167 72.9191 613.963 74.1211 612.477 74.1211H566.99C565.504 74.1211 564.3 72.9191 564.3 71.4355ZM564.3 106.328V97.4953C564.3 96.0117 565.504 94.8096 566.99 94.8096H608.019C609.505 94.8096 610.709 96.0117 610.709 97.4953V106.328C610.709 107.812 609.505 109.014 608.019 109.014H566.99C565.504 109.014 564.3 107.812 564.3 106.328Z" fill="#ED5425"/>
<path d="M650.356 135.829V113.946L623.36 63.5846C622.322 61.6476 623.725 59.3123 625.926 59.3123H639.899C641.055 59.3123 642.1 59.9991 642.568 61.0569L658.804 98.2989H659.526L675.645 61.0638C676.106 59.9991 677.151 59.3123 678.314 59.3123H692.052C694.247 59.3123 695.65 61.6476 694.618 63.5777L667.843 113.822V135.829C667.843 137.43 666.543 138.735 664.933 138.735H653.272C651.67 138.735 650.362 137.437 650.362 135.829H650.356Z" fill="#ED5425"/>
<defs>
<linearGradient id="paint0_linear_37_12" x1="5.1555" y1="163.613" x2="120.728" y2="17.7173" gradientUnits="userSpaceOnUse">
<stop stop-color="#D31D8B"/>
<stop offset="0.04" stop-color="#D52282"/>
<stop offset="0.37" stop-color="#E64F40"/>
<stop offset="0.52" stop-color="#ED6126"/>
<stop offset="0.69" stop-color="#F08641"/>
<stop offset="1" stop-color="#F8CB73"/>
</linearGradient>
<linearGradient id="paint1_linear_37_12" x1="16.1625" y1="172.337" x2="131.742" y2="26.4404" gradientUnits="userSpaceOnUse">
<stop stop-color="#D31D8B"/>
<stop offset="0.04" stop-color="#D52282"/>
<stop offset="0.37" stop-color="#E64F40"/>
<stop offset="0.52" stop-color="#ED6126"/>
<stop offset="0.69" stop-color="#F08641"/>
<stop offset="1" stop-color="#F8CB73"/>
</linearGradient>
<linearGradient id="paint2_linear_37_12" x1="12.9722" y1="169.824" x2="128.558" y2="23.9142" gradientUnits="userSpaceOnUse">
<stop stop-color="#D31D8B"/>
<stop offset="0.04" stop-color="#D52282"/>
<stop offset="0.37" stop-color="#E64F40"/>
<stop offset="0.52" stop-color="#ED6126"/>
<stop offset="0.69" stop-color="#F08641"/>
<stop offset="1" stop-color="#F8CB73"/>
</linearGradient>
<linearGradient id="paint3_linear_37_12" x1="8.26817" y1="166.089" x2="123.847" y2="20.186" gradientUnits="userSpaceOnUse">
<stop stop-color="#D31D8B"/>
<stop offset="0.04" stop-color="#D52282"/>
<stop offset="0.37" stop-color="#E64F40"/>
<stop offset="0.52" stop-color="#ED6126"/>
<stop offset="0.69" stop-color="#F08641"/>
<stop offset="1" stop-color="#F8CB73"/>
</linearGradient>
</defs>
</svg>
