<svg width="101" height="114" viewBox="0 0 101 114" fill="none" xmlns="http://www.w3.org/2000/svg">
<path d="M71.8594 84.1924C72.1958 88.98 71.9367 95.1407 72.014 100.219C71.9139 105.089 72.8733 109.467 68.4718 112.036C65.9073 113.391 62.5517 113.441 59.8416 112.523C56.7861 111.413 55.2492 108.412 55.2446 105.416C55.1719 101.87 55.2401 96.9366 55.2174 93.1266C55.2037 90.4167 54.408 86.7203 54.0397 85.2336C51.6889 75.8447 39.8121 71.4936 30.3362 69.6567C27.317 69.0475 24.3023 68.8884 21.2786 68.2791C7.84678 65.7421 0.908073 56.476 1.72198 42.8179C1.72198 39.5124 1.72198 34.4929 1.72198 31.0829C1.75381 27.2592 1.46281 25.2269 3.55442 22.6489C4.90488 20.9894 7.06014 20.2846 9.14267 20.1391C12.8348 19.8027 16.5588 21.103 17.9002 24.6176C18.9596 27.4547 18.4185 30.0327 18.5504 33.3472C18.5504 36.0888 18.5504 39.3124 18.5504 41.7357C18.5413 44.0955 19.0187 46.537 19.6599 47.9192C23.8795 56.9534 34.1784 62.2821 44.0408 64.1189C48.5287 64.91 53.1167 65.1146 57.4363 66.6787C65.1071 69.0066 70.9727 76.1584 71.8503 84.1242L71.8594 84.1924Z" fill="url(#paint0_linear_37_133)"/>
<path d="M99.6553 64.1055C99.9917 68.8931 99.7326 75.0538 99.8099 80.1324C99.7098 85.0019 100.669 89.3803 96.2677 91.9492C93.7032 93.3041 90.3476 93.3541 87.6375 92.4357C84.582 91.3263 83.0451 88.3255 83.0405 85.3292C82.9678 81.7829 83.036 76.8497 83.0133 73.0396C82.9996 70.3298 82.2039 66.6334 81.8356 65.1467C79.4848 55.7578 67.608 51.4067 58.1321 49.5698C55.1129 48.9606 52.0982 48.8014 49.0745 48.1922C35.6427 45.6552 28.704 36.3891 29.5179 22.7309C29.5179 19.4255 29.5179 14.406 29.5179 10.996C29.5497 7.17229 29.2587 5.13994 31.3503 2.56199C32.7008 0.90246 34.856 0.197729 36.9386 0.0522358C40.6307 -0.284216 44.3547 1.01613 45.6961 4.53069C46.7555 7.3678 46.2144 9.94575 46.3463 13.2603C46.3463 16.0019 46.3463 19.2255 46.3463 21.6488C46.3372 24.0085 46.8146 26.4501 47.4558 27.8323C51.6754 36.8665 61.9743 42.1952 71.8367 44.032C76.3246 44.8231 80.9126 45.0277 85.2322 46.5918C92.903 48.9197 98.7686 56.0715 99.6462 64.0373L99.6553 64.1055Z" fill="url(#paint1_linear_37_133)"/>
<path d="M63.6887 7.8734L62.1494 9.64401C60.1081 11.992 60.357 15.5502 62.7052 17.5913L87.7426 39.3543C90.0908 41.3954 93.6492 41.1466 95.6905 38.7986L97.2297 37.028C99.271 34.68 99.0222 31.1218 96.674 29.0807L71.6366 7.31767C69.2884 5.27655 65.73 5.52536 63.6887 7.8734Z" fill="url(#paint2_linear_37_133)"/>
<path d="M5.86083 74.3661L4.32155 76.1367C2.28027 78.4847 2.5291 82.0428 4.87731 84.084L29.9147 105.847C32.2629 107.888 35.8213 107.639 37.8626 105.291L39.4019 103.521C41.4431 101.173 41.1943 97.6145 38.8461 95.5734L13.8087 73.8103C11.4605 71.7692 7.9021 72.018 5.86083 74.3661Z" fill="url(#paint3_linear_37_133)"/>
<defs>
<linearGradient id="paint0_linear_37_133" x1="4.02731" y1="108.067" x2="80.5598" y2="11.604" gradientUnits="userSpaceOnUse">
<stop stop-color="#D31D8B"/>
<stop offset="0.04" stop-color="#D52282"/>
<stop offset="0.37" stop-color="#E64F40"/>
<stop offset="0.52" stop-color="#ED6126"/>
<stop offset="0.69" stop-color="#F08641"/>
<stop offset="1" stop-color="#F8CB73"/>
</linearGradient>
<linearGradient id="paint1_linear_37_133" x1="11.3072" y1="113.841" x2="87.8351" y2="17.3785" gradientUnits="userSpaceOnUse">
<stop stop-color="#D31D8B"/>
<stop offset="0.04" stop-color="#D52282"/>
<stop offset="0.37" stop-color="#E64F40"/>
<stop offset="0.52" stop-color="#ED6126"/>
<stop offset="0.69" stop-color="#F08641"/>
<stop offset="1" stop-color="#F8CB73"/>
</linearGradient>
<linearGradient id="paint2_linear_37_133" x1="9.19093" y1="112.175" x2="85.728" y2="15.7035" gradientUnits="userSpaceOnUse">
<stop stop-color="#D31D8B"/>
<stop offset="0.04" stop-color="#D52282"/>
<stop offset="0.37" stop-color="#E64F40"/>
<stop offset="0.52" stop-color="#ED6126"/>
<stop offset="0.69" stop-color="#F08641"/>
<stop offset="1" stop-color="#F8CB73"/>
</linearGradient>
<linearGradient id="paint3_linear_37_133" x1="6.09" y1="109.706" x2="82.627" y2="13.2382" gradientUnits="userSpaceOnUse">
<stop stop-color="#D31D8B"/>
<stop offset="0.04" stop-color="#D52282"/>
<stop offset="0.37" stop-color="#E64F40"/>
<stop offset="0.52" stop-color="#ED6126"/>
<stop offset="0.69" stop-color="#F08641"/>
<stop offset="1" stop-color="#F8CB73"/>
</linearGradient>
</defs>
</svg>
